<svg width="127" height="127" viewBox="0 0 127 127" fill="none" xmlns="http://www.w3.org/2000/svg">
<g clip-path="url(#clip0_78_147)">
<path d="M125.1 78.856C116.616 112.892 82.1322 133.582 48.1448 125.097C14.1078 116.613 -6.58224 82.1307 1.90245 48.1438C10.3866 14.1078 44.8205 -6.58224 78.8575 1.90246C112.845 10.337 133.585 44.8195 125.1 78.856Z" fill="url(#paint0_linear_78_147)"/>
<path d="M93.7345 55.5872C94.9747 47.1536 88.5751 42.5896 79.7446 39.5634L82.622 28.1036L75.6767 26.3673L72.8985 37.5294C71.063 37.0829 69.1778 36.6364 67.2927 36.2396L70.0708 25.0278L63.1255 23.2915L60.2978 34.7017C58.7599 34.3544 57.2716 34.0071 55.8329 33.6599V33.6103L46.2087 31.229L44.3731 38.6704C44.3731 38.6704 49.5325 39.861 49.4333 39.9106C52.261 40.6052 52.7571 42.4903 52.6579 43.9786L49.3837 57.0259C49.5821 57.0755 49.8302 57.1251 50.1278 57.2739C49.8798 57.2243 49.6317 57.1747 49.3837 57.0755L44.8196 75.3317C44.4724 76.1751 43.5794 77.4649 41.6446 76.9688C41.6942 77.0681 36.5845 75.7286 36.5845 75.7286L33.1118 83.7157L42.1903 85.9978C43.877 86.4442 45.5142 86.8411 47.1513 87.2876L44.2739 98.8466L51.2192 100.583L54.0966 89.1231C55.9817 89.6192 57.8669 90.1153 59.6528 90.5618L56.8251 101.972L63.7704 103.708L66.6478 92.1493C78.554 94.3817 87.4837 93.4888 91.2044 82.7235C94.2306 74.0915 91.0556 69.081 84.8048 65.8067C89.4185 64.7649 92.8415 61.7388 93.7345 55.5872ZM77.8099 77.9114C75.6767 86.5435 61.0915 81.8802 56.3786 80.6895L60.1985 65.3603C64.9114 66.5509 80.0919 68.8825 77.8099 77.9114ZM79.9927 55.4384C78.0083 63.3263 65.9036 59.3079 61.9845 58.3157L65.4571 44.4251C69.3763 45.4173 82.0267 47.2528 79.9927 55.4384Z" fill="white"/>
</g>
<defs>
<linearGradient id="paint0_linear_78_147" x1="6346.57" y1="-3.048" x2="6346.57" y2="12698.7" gradientUnits="userSpaceOnUse">
<stop stop-color="#F9AA4B"/>
<stop offset="1" stop-color="#F7931A"/>
</linearGradient>
<clipPath id="clip0_78_147">
<rect width="127" height="127" fill="white"/>
</clipPath>
</defs>
</svg>
