<svg width="265" height="265" viewBox="0 0 265 265" fill="none" xmlns="http://www.w3.org/2000/svg">
<path d="M74.5312 223.594C79.1049 223.594 82.8125 219.887 82.8125 215.313C82.8125 210.739 79.1049 207.032 74.5312 207.032C69.9576 207.032 66.25 210.739 66.25 215.313C66.25 219.887 69.9576 223.594 74.5312 223.594Z" fill="#FBCA0A"/>
<path d="M33.125 198.75V231.875C33.125 240.985 40.5781 248.438 49.6875 248.438H149.062V231.875H49.6875V198.75H149.062V182.188H49.6875C40.5781 182.188 33.125 189.641 33.125 198.75ZM33.125 107.657V149.063C33.125 158.172 40.5781 165.625 49.6875 165.625H115.938V149.063H49.6875V107.657H33.125Z" fill="#FBCA0A"/>
<path d="M74.5312 140.782C79.1049 140.782 82.8125 137.074 82.8125 132.5C82.8125 127.927 79.1049 124.219 74.5312 124.219C69.9576 124.219 66.25 127.927 66.25 132.5C66.25 137.074 69.9576 140.782 74.5312 140.782Z" fill="#FBCA0A"/>
<path d="M231.875 157.344V115.938C231.875 106.829 224.421 99.3755 215.312 99.3755H149.062V115.938H215.312V157.344H231.875ZM231.875 66.2505V33.1255C231.875 24.0161 224.421 16.563 215.312 16.563H115.937V33.1255H215.312V66.2505H115.937V82.813H215.312C224.421 82.813 231.875 75.3599 231.875 66.2505Z" fill="#FBCA0A"/>
<path d="M193.864 182.188L82.8125 71.1364V16.563H16.5625V82.813H71.1359L182.188 193.865V248.438H248.438V182.188H193.864ZM66.25 66.2505H33.125V33.1255H66.25V66.2505ZM231.875 231.875H198.75V198.75H231.875V231.875Z" fill="#FBCA0A"/>
</svg>
