<svg width="30" height="30" viewBox="0 0 30 30" fill="none" xmlns="http://www.w3.org/2000/svg">
<path d="M5 28.75V26.25H25V28.75H5ZM5 3.75V1.25H25V3.75H5ZM15 16.25C16.0417 16.25 16.9271 15.8854 17.6562 15.1562C18.3854 14.4271 18.75 13.5417 18.75 12.5C18.75 11.4583 18.3854 10.5729 17.6562 9.84375C16.9271 9.11458 16.0417 8.75 15 8.75C13.9583 8.75 13.0729 9.11458 12.3438 9.84375C11.6146 10.5729 11.25 11.4583 11.25 12.5C11.25 13.5417 11.6146 14.4271 12.3438 15.1562C13.0729 15.8854 13.9583 16.25 15 16.25ZM2.5 25V5H27.5V25H2.5ZM7.1875 22.5H22.8125C21.875 21.3333 20.7396 20.4167 19.4062 19.75C18.0729 19.0833 16.6042 18.75 15 18.75C13.3958 18.75 11.9271 19.0833 10.5938 19.75C9.26042 20.4167 8.125 21.3333 7.1875 22.5Z" fill="#D9D9D9"/>
</svg>
