<svg width="140" height="140" viewBox="0 0 140 140" fill="none" xmlns="http://www.w3.org/2000/svg">
<path d="M124.445 50.5556H93.3334C91.2706 50.5556 89.2923 51.375 87.8337 52.8336C86.3751 54.2922 85.5557 56.2705 85.5557 58.3333V116.667C85.5557 118.729 86.3751 120.708 87.8337 122.166C89.2923 123.625 91.2706 124.444 93.3334 124.444H124.445C126.507 124.444 128.486 123.625 129.944 122.166C131.403 120.708 132.222 118.729 132.222 116.667V58.3333C132.222 56.2705 131.403 54.2922 129.944 52.8336C128.486 51.375 126.507 50.5556 124.445 50.5556ZM124.445 58.3333V108.889H93.3334V58.3333H124.445Z" fill="#FBCA0A"/>
<path d="M108.889 15.5556H15.5556C13.4928 15.5556 11.5145 16.375 10.0559 17.8336C8.59727 19.2922 7.77783 21.2705 7.77783 23.3333V85.5556C7.77783 87.6184 8.59727 89.5967 10.0559 91.0553C11.5145 92.5139 13.4928 93.3333 15.5556 93.3333H46.6667V101.111H36.2445C35.0531 100.976 33.8553 101.304 32.8995 102.028C31.9437 102.752 31.3033 103.816 31.1112 105C31.3033 106.184 31.9437 107.248 32.8995 107.972C33.8553 108.696 35.0531 109.024 36.2445 108.889H77.4667V107.45H77.7778V85.5556H15.5556V23.3333H108.889V42.7778H116.667V23.3333C116.667 21.2705 115.847 19.2922 114.389 17.8336C112.93 16.375 110.952 15.5556 108.889 15.5556Z" fill="#FBCA0A"/>
</svg>
