<svg width="100" height="100" viewBox="0 0 100 100" fill="none" xmlns="http://www.w3.org/2000/svg">
<path d="M52.0832 55.4167C50.8332 51.6667 51.6665 48.75 52.0832 47.0834C51.6665 45.4167 50.8332 42.9167 51.6665 39.1667C52.9165 35.8334 54.9998 34.1667 56.2498 32.9167C56.6665 31.25 57.4998 28.75 60.8332 26.25C63.7498 24.1667 66.6665 24.1667 68.3332 24.1667C68.7498 23.75 69.5832 23.3334 70.4165 22.9167V10.8334C70.8332 7.08335 67.9165 4.16669 64.1665 4.16669H10.8332C7.08317 4.16669 4.1665 7.08335 4.1665 10.8334V51.6667C4.1665 55.4167 7.08317 58.3334 10.8332 58.3334H53.7498C52.9165 57.5 52.4998 56.6667 52.0832 55.4167ZM12.4998 20.8334V12.5L37.4998 25L62.4998 12.5V20.8334L37.4998 33.3334L12.4998 20.8334ZM94.1665 41.25C93.3332 38.75 91.2498 38.3334 89.9998 37.0834C89.1665 35.8334 89.1665 33.3334 87.0832 32.0834C84.9998 30.4167 82.9165 31.25 81.2498 30.8334C79.5832 30.4167 78.3332 28.3334 75.8332 28.3334C73.3332 28.3334 72.0832 30 70.4165 30.8334C68.7498 31.25 66.6665 30.4167 64.5832 32.0834C62.4998 33.3334 62.9165 35.4167 61.6665 37.0834C60.4165 38.3334 58.3332 39.1667 57.4998 41.25C56.6665 43.75 58.3332 45.4167 58.3332 47.0834C58.3332 48.75 56.6665 50.4167 57.4998 52.9167C58.3332 55.4167 60.4165 55.8334 61.6665 57.0834C62.4998 58.3334 62.4998 60.8334 64.5832 62.0834C66.6665 63.75 68.7498 62.9167 70.4165 63.3334C72.0832 63.75 73.3332 65.8334 75.8332 65.8334C78.3332 65.8334 79.5832 64.1667 81.2498 63.3334C82.9165 62.9167 84.9998 63.75 87.0832 62.0834C89.1665 60.4167 89.1665 58.3334 89.9998 57.0834C91.2498 55.8334 93.3332 55 94.1665 52.9167C94.9998 50.4167 93.3332 48.75 93.3332 47.0834C93.3332 45.4167 94.9998 43.75 94.1665 41.25ZM75.8332 60C68.7498 60 63.3332 54.1667 63.3332 47.5C63.3332 40.8334 69.1665 35 75.8332 35C82.4998 35 88.3332 40.8334 88.3332 47.5C88.3332 54.1667 82.9165 60 75.8332 60ZM82.0832 47.0834C82.0832 50.4167 79.1665 53.3334 75.8332 53.3334C72.4998 53.3334 69.5832 50.4167 69.5832 47.0834C69.5832 43.75 72.4998 40.8334 75.8332 40.8334C79.1665 40.8334 82.0832 43.75 82.0832 47.0834ZM81.2498 71.25L79.1665 82.5L76.6665 95.4167L68.3332 87.5L58.3332 92.0834L62.4998 68.3334C64.1665 69.1667 66.2498 69.5834 68.3332 69.5834C69.5832 70.4167 71.2498 71.25 72.4998 71.6667C73.3332 72.0834 74.5832 72.0834 75.8332 72.0834C77.9165 72.5 79.5832 72.0834 81.2498 71.25ZM94.5832 81.25L86.2498 78.3334L87.9165 69.1667L90.4165 67.9167L90.8332 67.5L94.5832 81.25Z" fill="#FBCA0A"/>
</svg>
