<svg width="100" height="100" viewBox="0 0 100 100" fill="none" xmlns="http://www.w3.org/2000/svg">
<path d="M70.8335 91.6666L69.5835 85.4166C68.7502 85.0694 67.9696 84.7055 67.2418 84.325C66.5141 83.9444 65.7668 83.475 65.0002 82.9166L58.9585 84.7916L54.7918 77.7083L59.5835 73.5416C59.4446 72.7083 59.3752 71.8055 59.3752 70.8333C59.3752 69.8611 59.4446 68.9583 59.5835 68.125L54.7918 63.9583L58.9585 56.875L65.0002 58.75C65.764 58.1944 66.5113 57.7263 67.2418 57.3458C67.9724 56.9652 68.7529 56.6 69.5835 56.25L70.8335 50H79.1668L80.4168 56.25C81.2502 56.5972 82.0321 56.9625 82.7627 57.3458C83.4932 57.7291 84.239 58.1972 85.0002 58.75L91.0418 56.875L95.2085 63.9583L90.4168 68.125C90.5557 68.9583 90.6252 69.8611 90.6252 70.8333C90.6252 71.8055 90.5557 72.7083 90.4168 73.5416L95.2085 77.7083L91.0418 84.7916L85.0002 82.9166C84.2363 83.4722 83.4904 83.9416 82.7627 84.325C82.0349 84.7083 81.2529 85.0722 80.4168 85.4166L79.1668 91.6666H70.8335ZM75.0002 79.1666C77.2918 79.1666 79.2543 78.3513 80.8877 76.7208C82.521 75.0902 83.3363 73.1277 83.3335 70.8333C83.3307 68.5388 82.5154 66.5777 80.8877 64.95C79.2599 63.3222 77.2974 62.5055 75.0002 62.5C72.7029 62.4944 70.7418 63.3111 69.1168 64.95C67.4918 66.5888 66.6752 68.55 66.6668 70.8333C66.6585 73.1166 67.4752 75.0791 69.1168 76.7208C70.7585 78.3625 72.7196 79.1777 75.0002 79.1666ZM16.6668 83.3333C14.3752 83.3333 12.4141 82.518 10.7835 80.8875C9.15294 79.2569 8.33627 77.2944 8.3335 75V25C8.3335 22.7083 9.15016 20.7472 10.7835 19.1166C12.4168 17.4861 14.3779 16.6694 16.6668 16.6666H41.6668L50.0002 25H83.3335C85.6252 25 87.5877 25.8166 89.221 27.45C90.8543 29.0833 91.6696 31.0444 91.6668 33.3333V46.9791C89.2363 45.243 86.5974 43.9236 83.7502 43.0208C80.9029 42.118 77.9516 41.6666 74.896 41.6666C66.7015 41.6666 59.8099 44.5319 54.221 50.2625C48.6321 55.993 45.8363 62.8152 45.8335 70.7291C45.8335 72.9513 46.0765 75.1041 46.5627 77.1875C47.0488 79.2708 47.7779 81.3194 48.7502 83.3333H16.6668Z" fill="#060113"/>
</svg>
