<svg width="265" height="265" viewBox="0 0 265 265" fill="none" xmlns="http://www.w3.org/2000/svg">
<path d="M206.921 99.375H198.64V67.7696C198.64 29.767 171.142 0 132.083 0C92.8674 0 66.1396 30.4005 66.1396 67.7696V99.375H57.8584C39.59 99.375 24.7334 114.232 24.7334 132.5V231.875C24.7334 250.143 39.59 265 57.8584 265H206.921C225.189 265 240.046 250.143 240.046 231.875V132.5C240.046 114.232 225.189 99.375 206.921 99.375ZM82.7021 67.7696C82.7021 39.5388 101.997 16.5625 132.083 16.5625C161.858 16.5625 182.077 39.0544 182.077 67.7696V99.375H82.7021V67.7696ZM223.484 231.875C223.484 241.005 216.051 248.438 206.921 248.438H57.8587C48.7286 248.438 41.2962 241.005 41.2962 231.875V132.5C41.2962 123.37 48.7286 115.938 57.8587 115.938H206.921C216.051 115.938 223.484 123.37 223.484 132.5V231.875ZM132.39 149.062C123.243 149.062 115.827 156.478 115.827 165.625C115.827 171.741 119.181 177.02 124.109 179.889V207.031C124.109 211.602 127.819 215.312 132.39 215.312C136.961 215.312 140.671 211.602 140.671 207.031V179.889C145.598 177.02 148.952 171.737 148.952 165.625C148.952 156.478 141.537 149.062 132.39 149.062Z" fill="#FBCA0A"/>
</svg>
