<svg width="100" height="100" viewBox="0 0 100 100" fill="none" xmlns="http://www.w3.org/2000/svg">
<path fill-rule="evenodd" clip-rule="evenodd" d="M45.8332 8.33337C42.518 8.33337 39.3385 9.65034 36.9943 11.9945C34.6501 14.3387 33.3332 17.5182 33.3332 20.8334V79.1667C33.3332 82.4819 34.6501 85.6613 36.9943 88.0055C39.3385 90.3498 42.518 91.6667 45.8332 91.6667H70.8332C74.1484 91.6667 77.3278 90.3498 79.672 88.0055C82.0162 85.6613 83.3332 82.4819 83.3332 79.1667V20.8334C83.3332 17.5182 82.0162 14.3387 79.672 11.9945C77.3278 9.65034 74.1484 8.33337 70.8332 8.33337H45.8332ZM51.2207 34.5542C52.002 33.7731 53.0617 33.3343 54.1665 33.3343C55.2714 33.3343 56.331 33.7731 57.1123 34.5542L69.6123 47.0542C70.3935 47.8356 70.8323 48.8952 70.8323 50C70.8323 51.1049 70.3935 52.1645 69.6123 52.9459L57.1123 65.4459C56.3265 66.2049 55.274 66.6248 54.1815 66.6154C53.089 66.6059 52.044 66.1677 51.2714 65.3951C50.4989 64.6226 50.0607 63.5775 50.0512 62.485C50.0417 61.3926 50.4617 60.3401 51.2207 59.5542L56.6082 54.1667H20.8332C19.7281 54.1667 18.6683 53.7277 17.8869 52.9463C17.1055 52.1649 16.6665 51.1051 16.6665 50C16.6665 48.895 17.1055 47.8352 17.8869 47.0538C18.6683 46.2724 19.7281 45.8334 20.8332 45.8334H56.6082L51.2207 40.4459C50.4395 39.6645 50.0007 38.6049 50.0007 37.5C50.0007 36.3952 50.4395 35.3356 51.2207 34.5542Z" fill="#060113"/>
</svg>
