<svg width="12" height="12" viewBox="0 0 12 12" fill="none" xmlns="http://www.w3.org/2000/svg">
<path fill-rule="evenodd" clip-rule="evenodd" d="M10.801 0.0373535H1.20098C0.859326 0.0373535 0.549832 0.203156 0.330752 0.468005C0.435241 0.504493 0.535406 0.559083 0.626662 0.632278L6.00098 4.94293L11.3753 0.632278C11.4665 0.559083 11.5667 0.504493 11.6712 0.468006C11.4521 0.203156 11.1426 0.0373535 10.801 0.0373535ZM12.001 2.69428L6.62666 7.00493C6.26107 7.29816 5.74088 7.29816 5.37529 7.00493L0.000976562 2.69428V9.66235C0.000976562 10.4186 0.540977 11.0374 1.20098 11.0374H10.801C11.461 11.0374 12.001 10.4186 12.001 9.66235V2.69428Z" fill="#C8A2D6" fill-opacity="0.4"/>
</svg>
