<svg width="9" height="11" viewBox="0 0 9 11" fill="none" xmlns="http://www.w3.org/2000/svg">
<path fill-rule="evenodd" clip-rule="evenodd" d="M2.88497 1.93074C3.25647 1.55924 3.76033 1.35054 4.28571 1.35054C4.8111 1.35054 5.31496 1.55924 5.68646 1.93074C6.05796 2.30225 6.26667 2.80611 6.26667 3.33149V5.23625H2.30476V3.33149C2.30476 2.80611 2.51347 2.30225 2.88497 1.93074ZM1.50476 5.23625V3.33149C1.50476 2.59394 1.79775 1.88659 2.31928 1.36506C2.84081 0.843529 3.54816 0.550537 4.28571 0.550537C5.02327 0.550537 5.73061 0.843529 6.25214 1.36506C6.77367 1.88659 7.06667 2.59394 7.06667 3.33149V5.23625H7.61905C8.14503 5.23625 8.57143 5.66265 8.57143 6.18863V9.52197C8.57143 10.048 8.14503 10.4743 7.61905 10.4743H0.952381C0.426395 10.4743 0 10.048 0 9.52197V6.18863C0 5.66265 0.426395 5.23625 0.952381 5.23625H1.50476Z" fill="#C8A2D6" fill-opacity="0.4"/>
</svg>
