<svg width="100" height="100" viewBox="0 0 100 100" fill="none" xmlns="http://www.w3.org/2000/svg">
<path fill-rule="evenodd" clip-rule="evenodd" d="M0 10.3571C0 4.46429 4.97143 0 10.7143 0H89.2857C95.0286 0 100 4.46429 100 10.3571V50.3571C100 56.25 95.0286 60.7143 89.2857 60.7143H10.7143C4.97143 60.7143 0 56.25 0 50.3571V10.3571ZM64.2857 30.3571C64.2857 34.146 62.7806 37.7796 60.1015 40.4587C57.4224 43.1378 53.7888 44.6429 50 44.6429C46.2112 44.6429 42.5776 43.1378 39.8985 40.4587C37.2194 37.7796 35.7143 34.146 35.7143 30.3571C35.7143 26.5683 37.2194 22.9347 39.8985 20.2556C42.5776 17.5765 46.2112 16.0714 50 16.0714C53.7888 16.0714 57.4224 17.5765 60.1015 20.2556C62.7806 22.9347 64.2857 26.5683 64.2857 30.3571ZM25 32.1429C25 31.4393 24.8614 30.7427 24.5922 30.0928C24.323 29.4428 23.9284 28.8522 23.4309 28.3548C22.9335 27.8573 22.3429 27.4627 21.6929 27.1935C21.043 26.9243 20.3464 26.7857 19.6429 26.7857C18.9393 26.7857 18.2427 26.9243 17.5928 27.1935C16.9428 27.4627 16.3522 27.8573 15.8548 28.3548C15.3573 28.8522 14.9627 29.4428 14.6935 30.0928C14.4243 30.7427 14.2857 31.4393 14.2857 32.1429C14.2857 33.5637 14.8501 34.9263 15.8548 35.9309C16.8594 36.9356 18.2221 37.5 19.6429 37.5C21.0637 37.5 22.4263 36.9356 23.4309 35.9309C24.4356 34.9263 25 33.5637 25 32.1429ZM80.3571 26.7857C81.7779 26.7857 83.1405 27.3501 84.1452 28.3548C85.1499 29.3594 85.7143 30.7221 85.7143 32.1429C85.7143 33.5637 85.1499 34.9263 84.1452 35.9309C83.1405 36.9356 81.7779 37.5 80.3571 37.5C78.9363 37.5 77.5737 36.9356 76.5691 35.9309C75.5644 34.9263 75 33.5637 75 32.1429C75 30.7221 75.5644 29.3594 76.5691 28.3548C77.5737 27.3501 78.9363 26.7857 80.3571 26.7857ZM36.6071 75C36.6071 73.816 36.1368 72.6805 35.2996 71.8433C34.4624 71.0061 33.3269 70.5357 32.1429 70.5357C30.9589 70.5357 29.8233 71.0061 28.9861 71.8433C28.1489 72.6805 27.6786 73.816 27.6786 75V89.2857C27.6786 90.4697 28.1489 91.6052 28.9861 92.4424C29.8233 93.2797 30.9589 93.75 32.1429 93.75C33.3269 93.75 34.4624 93.2797 35.2996 92.4424C36.1368 91.6052 36.6071 90.4697 36.6071 89.2857V75ZM67.8571 70.5357C70.3214 70.5357 72.3214 72.5357 72.3214 75V89.2857C72.3214 89.872 72.206 90.4525 71.9816 90.9941C71.7573 91.5358 71.4284 92.0279 71.0139 92.4424C70.5993 92.857 70.1072 93.1858 69.5655 93.4102C69.0239 93.6345 68.4434 93.75 67.8571 93.75C67.2709 93.75 66.6904 93.6345 66.1487 93.4102C65.6071 93.1858 65.115 92.857 64.7004 92.4424C64.2859 92.0279 63.957 91.5358 63.7327 90.9941C63.5083 90.4525 63.3929 89.872 63.3929 89.2857V75C63.3929 72.5357 65.3929 70.5357 67.8571 70.5357ZM50 75.8929C52.4643 75.8929 54.4643 77.8929 54.4643 80.3571V94.6429C54.4643 95.8269 53.9939 96.9624 53.1567 97.7996C52.3195 98.6368 51.184 99.1071 50 99.1071C48.816 99.1071 47.6805 98.6368 46.8433 97.7996C46.0061 96.9624 45.5357 95.8269 45.5357 94.6429V80.3571C45.5357 77.8929 47.5357 75.8929 50 75.8929Z" fill="#060113"/>
</svg>
