<svg width="32" height="32" viewBox="0 0 32 32" fill="none" xmlns="http://www.w3.org/2000/svg">
<path d="M29.3332 16C29.3332 14.249 28.9883 12.5152 28.3182 10.8975C27.6482 9.27987 26.666 7.81001 25.4279 6.5719C24.1898 5.33378 22.72 4.35166 21.1023 3.6816C19.4846 3.01153 17.7508 2.66666 15.9998 2.66666V5.33332C18.1094 5.33327 20.1716 5.95876 21.9257 7.1307C23.6798 8.30263 25.0471 9.96838 25.8545 11.9173C26.3907 13.2117 26.6666 14.599 26.6665 16H29.3332ZM2.6665 13.3333V6.66666C2.6665 6.31303 2.80698 5.9739 3.05703 5.72385C3.30708 5.4738 3.64622 5.33332 3.99984 5.33332H10.6665C11.0201 5.33332 11.3593 5.4738 11.6093 5.72385C11.8594 5.9739 11.9998 6.31303 11.9998 6.66666V12C11.9998 12.3536 11.8594 12.6927 11.6093 12.9428C11.3593 13.1928 11.0201 13.3333 10.6665 13.3333H7.99984C7.99984 16.1623 9.12364 18.8754 11.124 20.8758C13.1244 22.8762 15.8375 24 18.6665 24V21.3333C18.6665 20.9797 18.807 20.6406 19.057 20.3905C19.3071 20.1405 19.6462 20 19.9998 20H25.3332C25.6868 20 26.0259 20.1405 26.276 20.3905C26.526 20.6406 26.6665 20.9797 26.6665 21.3333V28C26.6665 28.3536 26.526 28.6927 26.276 28.9428C26.0259 29.1928 25.6868 29.3333 25.3332 29.3333H18.6665C9.8305 29.3333 2.6665 22.1693 2.6665 13.3333Z" fill="white"/>
<path d="M23.3907 12.9387C23.7928 13.9092 23.9999 14.9494 24 16H21.6C21.6 14.5148 21.01 13.0904 19.9598 12.0402C18.9096 10.99 17.4852 10.4 16 10.4V8C17.5822 8.00008 19.1289 8.46933 20.4444 9.3484C21.7599 10.2275 22.7852 11.4769 23.3907 12.9387Z" fill="white"/>
</svg>
