<svg width="522" height="518" viewBox="0 0 522 518" fill="none" xmlns="http://www.w3.org/2000/svg">
<g filter="url(#filter0_d_263_12)">
<path d="M326.476 36.9408L266.081 8.30259C264.348 7.4805 262.332 7.50289 260.617 8.36327L193.707 41.9309C191.6 42.988 190.27 45.1436 190.27 47.5009V131.057C190.27 133.766 192.02 136.165 194.6 136.992L258.818 157.566C262.098 158.617 265.667 158.263 268.677 156.59L321.462 127.244C325.303 125.108 327.735 121.108 327.864 116.716L330.035 42.7544C330.108 40.2819 328.711 38.0006 326.476 36.9408Z" fill="url(#paint0_linear_263_12)"/>
</g>
<g filter="url(#filter1_d_263_12)">
<path d="M241.916 76.734L182.262 52.8937C180.6 52.2292 178.732 52.312 177.135 53.1208L114.995 84.5885C112.858 85.6703 111.531 87.8806 111.58 90.2747L113.256 172.745C113.308 175.284 114.896 177.538 117.269 178.442L178.813 201.874C182.435 203.253 186.493 202.868 189.791 200.833L237.767 171.238C241.342 169.032 243.566 165.173 243.682 160.973L245.833 82.6919C245.905 80.0814 244.341 77.7031 241.916 76.734Z" fill="url(#paint1_linear_263_12)"/>
</g>
<g filter="url(#filter2_d_263_12)">
<path d="M406.234 73.3578L340.76 44.8249C339.111 44.1063 337.232 44.1352 335.606 44.9041L274.046 74.0142C271.826 75.0636 270.43 77.3182 270.479 79.7727L272.179 164.57C272.23 167.12 273.829 169.381 276.216 170.278L338.698 193.77C342.286 195.119 346.295 194.742 349.568 192.748L398.591 162.884C402.027 160.79 404.242 157.167 404.537 153.155L409.959 79.5283C410.153 76.8891 408.66 74.415 406.234 73.3578Z" fill="url(#paint2_linear_263_12)"/>
</g>
<g filter="url(#filter3_d_263_12)">
<path d="M321.023 109.073L254.099 77.6524C252.303 76.8092 250.213 76.8716 248.47 77.8203L185.45 112.133C183.405 113.247 182.152 115.408 182.2 117.736L183.902 199.449C183.955 201.984 185.539 204.235 187.908 205.14L250.979 229.238C254.314 230.512 258.036 230.295 261.2 228.641L315.758 200.127C319.756 198.037 322.312 193.951 322.443 189.442L324.604 114.895C324.676 112.414 323.269 110.128 321.023 109.073Z" fill="url(#paint3_linear_263_12)"/>
</g>
<path d="M113.537 88.5459C111.631 87.6704 111.592 84.975 113.473 84.0458L173.78 54.2549C176.886 52.7203 180.491 52.5481 183.729 53.7796L226.266 69.9543C231.28 71.8609 231.702 78.7903 226.957 81.2918L172.231 110.141C168.806 111.947 164.736 112.058 161.217 110.442L113.537 88.5459Z" fill="url(#paint4_linear_263_12)"/>
<path d="M199.342 42.2185C198.407 41.7812 198.379 40.4626 199.293 39.9849L256.872 9.91236C260.379 8.08083 264.547 8.023 268.103 9.75654L322.504 36.2748C323.423 36.7228 323.441 38.0261 322.535 38.4997L266.048 68.0179C262.602 69.8184 258.514 69.9081 254.993 68.2604L199.342 42.2185Z" fill="url(#paint5_linear_263_12)"/>
<path d="M186.483 116.254C184.655 115.381 184.576 112.809 186.346 111.825L244.55 79.488C248.131 77.4987 252.46 77.3957 256.131 79.2123L306.132 103.955C310.594 106.163 310.793 112.453 306.48 114.939L256.559 143.71C253.005 145.758 248.671 145.926 244.969 144.16L186.483 116.254Z" fill="url(#paint6_linear_263_12)"/>
<path d="M283.233 77.2827C280.316 75.9983 280.24 71.8862 283.109 70.4959L333.182 46.2277C336.496 44.6216 340.35 44.5633 343.711 46.0684L403.036 72.6355C405.923 73.9281 406 77.9978 403.165 79.3996L354.161 103.63C350.853 105.265 346.992 105.351 343.615 103.865L283.233 77.2827Z" fill="url(#paint7_linear_263_12)"/>
<path d="M155.023 310.801L107.432 282.117C105.444 280.919 102.954 280.925 100.972 282.134L52.6374 311.597C51.2868 312.42 50.6004 314.004 50.9232 315.552L63.9489 378.03C64.2705 379.573 65.1648 380.936 66.4516 381.846L107.777 411.067C108.576 411.632 109.632 411.677 110.476 411.182L160.046 382.136C164.37 379.602 166.756 374.724 166.102 369.755L159.169 317.134C158.823 314.502 157.297 312.172 155.023 310.801Z" fill="url(#paint8_linear_263_12)"/>
<g filter="url(#filter4_d_263_12)">
<path d="M150.468 222.625L101.626 193.83C99.5537 192.608 96.9638 192.688 94.9711 194.035L34.7868 234.712C33.5402 235.555 32.9201 237.062 33.2131 238.538L46.7568 306.747C47.0527 308.237 47.8827 309.567 49.0908 310.489L98.7005 348.313C100.705 349.841 103.433 350.011 105.613 348.743L156.194 319.317C160.407 316.866 162.804 312.185 162.331 307.334L154.72 229.294C154.45 226.519 152.87 224.041 150.468 222.625Z" fill="url(#paint9_linear_263_12)"/>
</g>
<g filter="url(#filter5_d_263_12)">
<path d="M164.411 123.583L96.577 92.4982C94.8687 91.7153 92.8983 91.7452 91.2145 92.5794L19.7868 127.966C14.6312 130.52 11.894 136.272 13.1633 141.883L32.2655 226.338C32.615 227.884 33.5401 229.238 34.8526 230.126L84.8489 263.938C88.5112 266.415 93.2115 266.766 97.2012 264.861L155.861 236.853C159.915 234.917 162.613 230.951 162.925 226.469L169.48 132.119C169.732 128.496 167.713 125.096 164.411 123.583Z" fill="url(#paint10_linear_263_12)"/>
</g>
<path d="M220.667 370.329L174.335 340.508C172.501 339.328 170.183 339.192 168.224 340.15L113.947 366.698C112.489 367.412 111.657 368.985 111.89 370.592L118.512 416.415C118.764 418.157 119.741 419.711 121.201 420.694L173.786 456.082C175.72 457.384 178.22 457.497 180.264 456.374L220.157 434.468C224.311 432.187 226.811 427.748 226.61 423.013L224.662 377.294C224.541 374.461 223.052 371.864 220.667 370.329Z" fill="url(#paint11_linear_263_12)"/>
<g filter="url(#filter6_d_263_12)">
<path d="M229.685 280.63L176.376 246.755C174.503 245.565 172.138 245.46 170.168 246.481L101.616 281.989C100.213 282.715 99.4187 284.245 99.6306 285.81L108.857 353.985C109.098 355.768 110.098 357.359 111.6 358.35L167.086 394.965C169.023 396.244 171.511 396.339 173.541 395.213L227.313 365.382C231.273 363.185 233.73 359.013 233.73 354.484V287.993C233.73 285.008 232.204 282.23 229.685 280.63Z" fill="url(#paint12_linear_263_12)"/>
</g>
<path d="M27.9088 135.45C23.5999 132.926 23.8612 126.613 28.3639 124.454L92.1914 93.8464C95.6003 92.2118 99.5669 92.2128 102.975 93.8491L146.833 114.907C151.388 117.094 151.583 123.509 147.169 125.968L83.9808 161.182C80.126 163.33 75.4225 163.28 71.6146 161.049L27.9088 135.45Z" fill="url(#paint13_linear_263_12)"/>
<g filter="url(#filter7_d_263_12)">
<path d="M245.887 152.341L177.474 121.079C175.711 120.273 173.672 120.334 171.96 121.244L89.3817 165.125C84.7282 167.598 82.1328 172.73 82.8992 177.944L96.2939 269.063C96.5587 270.865 97.5982 272.46 99.139 273.43L163.024 313.655C167.392 316.405 173.003 316.178 177.135 313.085L239.273 266.558C242.172 264.387 243.984 261.061 244.236 257.448L250.964 160.882C251.217 157.255 249.194 153.852 245.887 152.341Z" fill="url(#paint14_linear_263_12)"/>
</g>
<path d="M102.389 169.659C98.0955 167.27 98.1267 161.084 102.444 158.738L168.527 122.831C172.031 120.927 176.235 120.815 179.835 122.529L235.577 149.071C240.043 151.197 240.37 157.429 236.152 160.012L170.419 200.26C166.584 202.609 161.78 202.708 157.85 200.522L102.389 169.659Z" fill="url(#paint15_linear_263_12)"/>
<path d="M399.797 341.447C399.986 339.52 401.06 337.79 402.702 336.766L462.04 299.77C463.949 298.58 466.333 300.327 465.773 302.506L448.555 369.489C448.212 370.823 447.437 372.006 446.35 372.853L397.205 411.146C395.478 412.491 392.979 411.116 393.192 408.936L399.797 341.447Z" fill="url(#paint16_linear_263_12)"/>
<path d="M331.519 395.906C331.861 392.365 333.699 389.139 336.571 387.04L405.414 336.729C407.208 335.417 409.692 336.933 409.347 339.128L397.857 412.243C397.596 413.904 396.675 415.389 395.303 416.361L335.835 458.485C331.482 461.569 325.518 458.112 326.03 452.801L331.519 395.906Z" fill="url(#paint17_linear_263_12)"/>
<g filter="url(#filter8_d_263_12)">
<path d="M405.317 269.763C405.489 267.777 406.601 265.993 408.309 264.964L483.8 219.46C485.715 218.305 488.065 220.063 487.498 222.227L468.239 295.666C467.9 296.959 467.154 298.108 466.112 298.945L402.607 349.907C400.896 351.28 398.374 349.934 398.564 347.748L405.317 269.763Z" fill="url(#paint18_linear_263_12)"/>
</g>
<path d="M185.604 392.293L256.969 384.814L330.618 398.663C331.892 398.903 332.769 400.079 332.637 401.368L326.265 463.321C326.09 465.026 325.22 466.584 323.86 467.628L265.328 512.546C261.081 515.805 255.228 515.988 250.786 513.002L187.537 470.478L180.055 399.141C179.696 395.718 182.18 392.652 185.604 392.293Z" fill="url(#paint19_linear_263_12)"/>
<g filter="url(#filter9_d_263_12)">
<path d="M354.979 111.889L415.486 84.1186C418.767 82.6124 422.541 82.6035 425.83 84.0943L501.495 118.392C506.898 120.841 509.826 126.759 508.495 132.54L488.976 217.314C488.611 218.9 487.64 220.28 486.27 221.16L429.062 257.898C424.741 260.673 419.16 260.513 415.004 257.496L362.222 219.169L349.96 120.898C349.489 117.122 351.52 113.476 354.979 111.889Z" fill="url(#paint20_linear_263_12)"/>
</g>
<path d="M367.452 116.649C362.813 114.261 362.988 107.568 367.746 105.426L415.145 84.0867C418.445 82.6011 422.227 82.6231 425.51 84.1471L498.571 118.069C501.365 119.366 501.48 123.296 498.766 124.754L447.993 152.033C444.378 153.975 440.039 154.014 436.39 152.135L367.452 116.649Z" fill="url(#paint21_linear_263_12)"/>
<g filter="url(#filter10_d_263_12)">
<path d="M342.614 302.706C342.785 300.863 343.767 299.191 345.294 298.144L412.325 252.166C414.125 250.932 416.53 252.443 416.199 254.601L403.239 338.941C402.992 340.551 402.124 342 400.821 342.978L338.727 389.591C336.998 390.889 334.549 389.52 334.749 387.367L342.614 302.706Z" fill="url(#paint22_linear_263_12)"/>
</g>
<g filter="url(#filter11_d_263_12)">
<path d="M268.831 149.677L333.589 114.473C335.292 113.548 337.328 113.467 339.098 114.254L420.857 150.614C425.87 152.844 428.836 158.091 428.161 163.536L416.698 255.997C416.484 257.721 415.56 259.278 414.149 260.292L354.134 303.41C349.74 306.567 343.81 306.528 339.458 303.314L276.543 256.85L264.34 158.416C263.899 154.856 265.68 151.39 268.831 149.677Z" fill="url(#paint23_linear_263_12)"/>
</g>
<g filter="url(#filter12_d_263_12)">
<path d="M181.421 322.872L257.186 314.144L327.094 319.472C334.012 319.999 339.168 326.074 338.563 332.986L333.076 395.691C332.926 397.407 332.072 398.984 330.718 400.048L265.632 451.183C261.345 454.55 255.368 454.742 250.875 451.655L185.781 406.936C184.267 405.896 183.288 404.24 183.108 402.411L175.933 329.674C175.599 326.289 178.042 323.261 181.421 322.872Z" fill="url(#paint24_linear_263_12)"/>
</g>
<path d="M274.2 157.937C269.716 155.678 269.608 149.316 274.012 146.906L330.343 116.073C333.861 114.147 338.092 114.032 341.71 115.765L411.754 149.307C416.293 151.48 416.516 157.86 412.141 160.346L355.354 192.609C351.728 194.669 347.312 194.78 343.588 192.903L274.2 157.937Z" fill="url(#paint25_linear_263_12)"/>
<g filter="url(#filter13_d_263_12)">
<path d="M336.945 204.352L255.958 163.473C254.055 162.513 251.794 162.591 249.962 163.681L172.539 209.77C168.433 212.214 166.086 216.792 166.497 221.553L174.962 319.438C175.126 321.332 176.145 323.047 177.73 324.097L252.287 373.463C256.458 376.225 261.877 376.225 266.048 373.463L338.051 325.788C341.247 323.672 343.291 320.203 343.594 316.382L350.561 228.576C351.362 218.486 345.981 208.913 336.945 204.352Z" fill="url(#paint26_linear_263_12)"/>
</g>
<path d="M180.28 216.243C175.826 214.058 175.587 207.798 179.861 205.28L247.254 165.566C251.073 163.315 255.801 163.263 259.669 165.428L327.073 203.162C331.356 205.56 331.314 211.74 326.997 214.079L260.834 249.924C257.287 251.845 253.03 251.932 249.408 250.155L180.28 216.243Z" fill="url(#paint27_linear_263_12)"/>
<path d="M266.324 271.447C266.324 268.317 268.001 265.427 270.718 263.874L338.712 224.99C343.102 222.48 348.496 225.967 348.009 231L339.676 317.12C339.423 319.728 338.011 322.085 335.83 323.539L276.012 363.407C271.871 366.168 266.324 363.199 266.324 358.222V271.447Z" fill="url(#paint28_linear_263_12)"/>
<path d="M445.179 173.658C445.635 171.043 447.257 168.777 449.586 167.502L502.034 138.795C504.878 137.238 508.22 139.791 507.466 142.944L489.917 216.379C489.391 218.58 488.03 220.491 486.121 221.708L437.802 252.508C435.062 254.254 431.551 251.915 432.109 248.713L445.179 173.658Z" fill="url(#paint29_linear_263_12)"/>
<path d="M251.385 270.802C251.385 268.465 250.077 266.324 247.998 265.257L176.044 228.332C171.644 226.074 166.493 229.595 167 234.514L175.463 316.783C175.733 319.411 177.179 321.774 179.396 323.211L241.764 363.63C245.91 366.316 251.385 363.341 251.385 358.4V270.802Z" fill="url(#paint30_linear_263_12)"/>
<path d="M155.671 221.788C155.456 219.834 154.332 218.096 152.639 217.099L91.0467 180.831C88.3442 179.239 85.0012 181.482 85.4487 184.586L97.3461 267.119C97.7097 269.641 99.1577 271.878 101.31 273.243L159.256 309.979C161.903 311.658 165.317 309.529 164.974 306.413L155.671 221.788Z" fill="url(#paint31_linear_263_12)"/>
<g filter="url(#filter14_d_263_12)">
<path d="M356.735 218.653C357.087 214.596 359.398 210.966 362.926 208.931L421.359 175.238C424.047 173.688 427.344 175.897 426.933 178.973L416.576 256.462C416.248 258.916 414.893 261.115 412.848 262.512L355.683 301.542C353.078 303.32 349.578 301.273 349.85 298.131L356.735 218.653Z" fill="url(#paint32_linear_263_12)"/>
</g>
<path d="M163.474 326.198C163.302 324.298 162.269 322.581 160.671 321.54L103.811 284.482C102.028 283.32 99.7028 284.783 99.9788 286.894L108.653 353.226C108.885 354.999 109.867 356.586 111.35 357.586L165.549 394.114C167.291 395.288 169.614 393.914 169.425 391.822L163.474 326.198Z" fill="url(#paint33_linear_263_12)"/>
<path d="M348.415 320.926C348.595 319.023 349.638 317.309 351.244 316.274L403.825 282.393C408.38 279.458 414.252 283.334 413.344 288.677L404.774 339.058C404.493 340.705 403.564 342.17 402.193 343.125L353.41 377.125C349.056 380.159 343.144 376.71 343.643 371.426L348.415 320.926Z" fill="url(#paint34_linear_263_12)"/>
<path d="M423.561 277.656C423.816 276.118 424.638 274.731 425.865 273.77L469.358 239.698C474.025 236.041 480.679 240.353 479.248 246.107L467.07 295.084C466.748 296.378 466.019 297.535 464.99 298.385L425.841 330.718C421.398 334.388 414.782 330.579 415.725 324.894L423.561 277.656Z" fill="url(#paint35_linear_263_12)"/>
<path d="M414.33 349.012C414.606 347.549 415.396 346.233 416.558 345.302L458.52 311.684C461.329 309.433 465.384 312.063 464.475 315.546L450.351 369.666C449.995 371.027 449.189 372.229 448.064 373.074L408.629 402.7C406.81 404.067 404.261 402.482 404.682 400.246L414.33 349.012Z" fill="url(#paint36_linear_263_12)"/>
<path d="M340.46 399.01C340.548 397.568 341.257 396.235 342.403 395.356L397.561 353.072C401.148 350.322 406.249 353.382 405.513 357.841L396.933 409.801C396.724 411.062 396.039 412.195 395.019 412.966L345.584 450.317C342.187 452.883 337.344 450.286 337.602 446.036L340.46 399.01Z" fill="url(#paint37_linear_263_12)"/>
<path d="M266.324 383.834C266.324 381.765 267.351 379.831 269.065 378.672L330.87 336.875C335.326 333.862 341.251 337.531 340.538 342.863L333.449 395.908C333.228 397.564 332.351 399.061 331.016 400.064L272.31 444.19C269.845 446.042 266.324 444.284 266.324 441.201V383.834Z" fill="url(#paint38_linear_263_12)"/>
<path d="M172.209 409.694C172.003 407.891 171.022 406.267 169.522 405.247L116.12 368.929C114.337 367.717 111.959 369.187 112.248 371.324L118.523 417.758C118.759 419.507 119.726 421.073 121.183 422.069L173.547 457.846C175.309 459.05 177.671 457.626 177.43 455.505L172.209 409.694Z" fill="url(#paint39_linear_263_12)"/>
<path d="M73.4475 177.784C73.124 175.997 72.0373 174.441 70.4715 173.521L21.137 144.545C18.3176 142.889 14.8808 145.395 15.5946 148.585L32.9163 226.015C33.397 228.164 34.6726 230.052 36.4871 231.299L82.3726 262.85C85.1116 264.733 88.7625 262.374 88.1703 259.103L73.4475 177.784Z" fill="url(#paint40_linear_263_12)"/>
<path d="M263.608 458.654C263.608 457.079 264.352 455.597 265.615 454.656L321.282 413.171C324.727 410.604 329.589 413.305 329.229 417.586L325.313 464.181C325.198 465.549 324.524 466.809 323.45 467.664L267.653 512.063C266.02 513.363 263.608 512.2 263.608 510.113V458.654Z" fill="url(#paint41_linear_263_12)"/>
<path d="M89.0978 277.769C88.825 276.106 87.8901 274.624 86.5062 273.662L36.5034 238.888C34.6539 237.602 32.1824 239.234 32.6393 241.44L45.9988 305.932C46.3108 307.438 47.1687 308.776 48.4075 309.688L95.7076 344.494C97.5074 345.818 100.006 344.288 99.6448 342.083L89.0978 277.769Z" fill="url(#paint42_linear_263_12)"/>
<path d="M251.385 460.838C251.385 458.781 250.37 456.857 248.673 455.695L189.175 414.964C187.44 413.776 185.105 415.137 185.283 417.232L189.432 466.04C189.588 467.871 190.543 469.539 192.043 470.6L247.453 509.783C249.104 510.951 251.385 509.77 251.385 507.748V460.838Z" fill="url(#paint43_linear_263_12)"/>
<path d="M251.385 384.547C251.385 382.877 250.549 381.318 249.157 380.394L186.661 338.891C183.184 336.581 178.577 339.314 178.937 343.473L183.959 401.646C184.086 403.11 184.851 404.443 186.051 405.29L243.524 445.859C246.827 448.19 251.385 445.828 251.385 441.786V384.547Z" fill="url(#paint44_linear_263_12)"/>
<path d="M103.236 361.935C102.993 360.38 102.17 358.975 100.933 358.002L55.8194 322.497C53.9846 321.053 51.3495 322.699 51.841 324.981L63.4531 378.904C63.783 380.436 64.6784 381.788 65.9605 382.69L106.695 411.334C108.494 412.599 110.932 411.083 110.591 408.909L103.236 361.935Z" fill="url(#paint45_linear_263_12)"/>
<defs>
<filter id="filter0_d_263_12" x="177.806" y="0.22355" width="164.695" height="175.385" filterUnits="userSpaceOnUse" color-interpolation-filters="sRGB">
<feFlood flood-opacity="0" result="BackgroundImageFix"/>
<feColorMatrix in="SourceAlpha" type="matrix" values="0 0 0 0 0 0 0 0 0 0 0 0 0 0 0 0 0 0 127 0" result="hardAlpha"/>
<feOffset dy="4.98537"/>
<feGaussianBlur stdDeviation="6.23171"/>
<feColorMatrix type="matrix" values="0 0 0 0 0.984314 0 0 0 0 0.792157 0 0 0 0 0.0392157 0 0 0 1 0"/>
<feBlend mode="normal" in2="BackgroundImageFix" result="effect1_dropShadow_263_12"/>
<feBlend mode="normal" in="SourceGraphic" in2="effect1_dropShadow_263_12" result="shape"/>
</filter>
<filter id="filter1_d_263_12" x="105.346" y="39.9853" width="159.184" height="175.167" filterUnits="userSpaceOnUse" color-interpolation-filters="sRGB">
<feFlood flood-opacity="0" result="BackgroundImageFix"/>
<feColorMatrix in="SourceAlpha" type="matrix" values="0 0 0 0 0 0 0 0 0 0 0 0 0 0 0 0 0 0 127 0" result="hardAlpha"/>
<feOffset dx="6.23171"/>
<feGaussianBlur stdDeviation="6.23171"/>
<feColorMatrix type="matrix" values="0 0 0 0 0.984314 0 0 0 0 0.792157 0 0 0 0 0.0392157 0 0 0 1 0"/>
<feBlend mode="normal" in2="BackgroundImageFix" result="effect1_dropShadow_263_12"/>
<feBlend mode="normal" in="SourceGraphic" in2="effect1_dropShadow_263_12" result="shape"/>
</filter>
<filter id="filter2_d_263_12" x="258.015" y="36.8279" width="164.424" height="175.188" filterUnits="userSpaceOnUse" color-interpolation-filters="sRGB">
<feFlood flood-opacity="0" result="BackgroundImageFix"/>
<feColorMatrix in="SourceAlpha" type="matrix" values="0 0 0 0 0 0 0 0 0 0 0 0 0 0 0 0 0 0 127 0" result="hardAlpha"/>
<feOffset dy="4.98537"/>
<feGaussianBlur stdDeviation="6.23171"/>
<feColorMatrix type="matrix" values="0 0 0 0 0.984314 0 0 0 0 0.792157 0 0 0 0 0.0392157 0 0 0 1 0"/>
<feBlend mode="normal" in2="BackgroundImageFix" result="effect1_dropShadow_263_12"/>
<feBlend mode="normal" in="SourceGraphic" in2="effect1_dropShadow_263_12" result="shape"/>
</filter>
<filter id="filter3_d_263_12" x="175.967" y="67.0909" width="167.335" height="177.924" filterUnits="userSpaceOnUse" color-interpolation-filters="sRGB">
<feFlood flood-opacity="0" result="BackgroundImageFix"/>
<feColorMatrix in="SourceAlpha" type="matrix" values="0 0 0 0 0 0 0 0 0 0 0 0 0 0 0 0 0 0 127 0" result="hardAlpha"/>
<feOffset dx="6.23171" dy="2.49268"/>
<feGaussianBlur stdDeviation="6.23171"/>
<feColorMatrix type="matrix" values="0 0 0 0 0.984314 0 0 0 0 0.792157 0 0 0 0 0.0392157 0 0 0 1 0"/>
<feBlend mode="normal" in2="BackgroundImageFix" result="effect1_dropShadow_263_12"/>
<feBlend mode="normal" in="SourceGraphic" in2="effect1_dropShadow_263_12" result="shape"/>
</filter>
<filter id="filter4_d_263_12" x="20.6777" y="168.039" width="154.176" height="181.549" filterUnits="userSpaceOnUse" color-interpolation-filters="sRGB">
<feFlood flood-opacity="0" result="BackgroundImageFix"/>
<feColorMatrix in="SourceAlpha" type="matrix" values="0 0 0 0 0 0 0 0 0 0 0 0 0 0 0 0 0 0 127 0" result="hardAlpha"/>
<feOffset dy="-12.4634"/>
<feGaussianBlur stdDeviation="6.23171"/>
<feColorMatrix type="matrix" values="0 0 0 0 0.984314 0 0 0 0 0.792157 0 0 0 0 0.0392157 0 0 0 1 0"/>
<feBlend mode="normal" in2="BackgroundImageFix" result="effect1_dropShadow_263_12"/>
<feBlend mode="normal" in="SourceGraphic" in2="effect1_dropShadow_263_12" result="shape"/>
</filter>
<filter id="filter5_d_263_12" x="0.391565" y="84.4537" width="181.573" height="199.073" filterUnits="userSpaceOnUse" color-interpolation-filters="sRGB">
<feFlood flood-opacity="0" result="BackgroundImageFix"/>
<feColorMatrix in="SourceAlpha" type="matrix" values="0 0 0 0 0 0 0 0 0 0 0 0 0 0 0 0 0 0 127 0" result="hardAlpha"/>
<feOffset dy="4.98537"/>
<feGaussianBlur stdDeviation="6.23171"/>
<feColorMatrix type="matrix" values="0 0 0 0 0.984314 0 0 0 0 0.792157 0 0 0 0 0.0392157 0 0 0 1 0"/>
<feBlend mode="normal" in2="BackgroundImageFix" result="effect1_dropShadow_263_12"/>
<feBlend mode="normal" in="SourceGraphic" in2="effect1_dropShadow_263_12" result="shape"/>
</filter>
<filter id="filter6_d_263_12" x="87.1333" y="238.305" width="159.06" height="175.139" filterUnits="userSpaceOnUse" color-interpolation-filters="sRGB">
<feFlood flood-opacity="0" result="BackgroundImageFix"/>
<feColorMatrix in="SourceAlpha" type="matrix" values="0 0 0 0 0 0 0 0 0 0 0 0 0 0 0 0 0 0 127 0" result="hardAlpha"/>
<feOffset dy="4.98537"/>
<feGaussianBlur stdDeviation="6.23171"/>
<feColorMatrix type="matrix" values="0 0 0 0 0.984314 0 0 0 0 0.792157 0 0 0 0 0.0392157 0 0 0 1 0"/>
<feBlend mode="normal" in2="BackgroundImageFix" result="effect1_dropShadow_263_12"/>
<feBlend mode="normal" in="SourceGraphic" in2="effect1_dropShadow_263_12" result="shape"/>
</filter>
<filter id="filter7_d_263_12" x="82.7661" y="116.776" width="180.683" height="207.52" filterUnits="userSpaceOnUse" color-interpolation-filters="sRGB">
<feFlood flood-opacity="0" result="BackgroundImageFix"/>
<feColorMatrix in="SourceAlpha" type="matrix" values="0 0 0 0 0 0 0 0 0 0 0 0 0 0 0 0 0 0 127 0" result="hardAlpha"/>
<feOffset dx="6.23171" dy="2.49268"/>
<feGaussianBlur stdDeviation="3.11585"/>
<feColorMatrix type="matrix" values="0 0 0 0 0.984314 0 0 0 0 0.792157 0 0 0 0 0.0392157 0 0 0 1 0"/>
<feBlend mode="normal" in2="BackgroundImageFix" result="effect1_dropShadow_263_12"/>
<feBlend mode="normal" in="SourceGraphic" in2="effect1_dropShadow_263_12" result="shape"/>
</filter>
<filter id="filter8_d_263_12" x="386.09" y="211.616" width="113.957" height="156.295" filterUnits="userSpaceOnUse" color-interpolation-filters="sRGB">
<feFlood flood-opacity="0" result="BackgroundImageFix"/>
<feColorMatrix in="SourceAlpha" type="matrix" values="0 0 0 0 0 0 0 0 0 0 0 0 0 0 0 0 0 0 127 0" result="hardAlpha"/>
<feOffset dy="4.98537"/>
<feGaussianBlur stdDeviation="6.23171"/>
<feColorMatrix type="matrix" values="0 0 0 0 0.984314 0 0 0 0 0.792157 0 0 0 0 0.0392157 0 0 0 1 0"/>
<feBlend mode="normal" in2="BackgroundImageFix" result="effect1_dropShadow_263_12"/>
<feBlend mode="normal" in="SourceGraphic" in2="effect1_dropShadow_263_12" result="shape"/>
</filter>
<filter id="filter9_d_263_12" x="337.43" y="75.5045" width="183.848" height="201.818" filterUnits="userSpaceOnUse" color-interpolation-filters="sRGB">
<feFlood flood-opacity="0" result="BackgroundImageFix"/>
<feColorMatrix in="SourceAlpha" type="matrix" values="0 0 0 0 0 0 0 0 0 0 0 0 0 0 0 0 0 0 127 0" result="hardAlpha"/>
<feOffset dy="4.98537"/>
<feGaussianBlur stdDeviation="6.23171"/>
<feColorMatrix type="matrix" values="0 0 0 0 0.984314 0 0 0 0 0.792157 0 0 0 0 0.0392157 0 0 0 1 0"/>
<feBlend mode="normal" in2="BackgroundImageFix" result="effect1_dropShadow_263_12"/>
<feBlend mode="normal" in="SourceGraphic" in2="effect1_dropShadow_263_12" result="shape"/>
</filter>
<filter id="filter10_d_263_12" x="322.274" y="244.244" width="106.419" height="163.301" filterUnits="userSpaceOnUse" color-interpolation-filters="sRGB">
<feFlood flood-opacity="0" result="BackgroundImageFix"/>
<feColorMatrix in="SourceAlpha" type="matrix" values="0 0 0 0 0 0 0 0 0 0 0 0 0 0 0 0 0 0 127 0" result="hardAlpha"/>
<feOffset dy="4.98537"/>
<feGaussianBlur stdDeviation="6.23171"/>
<feColorMatrix type="matrix" values="0 0 0 0 0.984314 0 0 0 0 0.792157 0 0 0 0 0.0392157 0 0 0 1 0"/>
<feBlend mode="normal" in2="BackgroundImageFix" result="effect1_dropShadow_263_12"/>
<feBlend mode="normal" in="SourceGraphic" in2="effect1_dropShadow_263_12" result="shape"/>
</filter>
<filter id="filter11_d_263_12" x="264.273" y="100.007" width="188.909" height="216.962" filterUnits="userSpaceOnUse" color-interpolation-filters="sRGB">
<feFlood flood-opacity="0" result="BackgroundImageFix"/>
<feColorMatrix in="SourceAlpha" type="matrix" values="0 0 0 0 0 0 0 0 0 0 0 0 0 0 0 0 0 0 127 0" result="hardAlpha"/>
<feOffset dx="12.4634" dy="-1.24634"/>
<feGaussianBlur stdDeviation="6.23171"/>
<feColorMatrix type="matrix" values="0 0 0 0 0.984314 0 0 0 0 0.792157 0 0 0 0 0.0392157 0 0 0 1 0"/>
<feBlend mode="normal" in2="BackgroundImageFix" result="effect1_dropShadow_263_12"/>
<feBlend mode="normal" in="SourceGraphic" in2="effect1_dropShadow_263_12" result="shape"/>
</filter>
<filter id="filter12_d_263_12" x="163.439" y="306.666" width="187.636" height="164.629" filterUnits="userSpaceOnUse" color-interpolation-filters="sRGB">
<feFlood flood-opacity="0" result="BackgroundImageFix"/>
<feColorMatrix in="SourceAlpha" type="matrix" values="0 0 0 0 0 0 0 0 0 0 0 0 0 0 0 0 0 0 127 0" result="hardAlpha"/>
<feOffset dy="4.98537"/>
<feGaussianBlur stdDeviation="6.23171"/>
<feColorMatrix type="matrix" values="0 0 0 0 0.984314 0 0 0 0 0.792157 0 0 0 0 0.0392157 0 0 0 1 0"/>
<feBlend mode="normal" in2="BackgroundImageFix" result="effect1_dropShadow_263_12"/>
<feBlend mode="normal" in="SourceGraphic" in2="effect1_dropShadow_263_12" result="shape"/>
</filter>
<filter id="filter13_d_263_12" x="160.219" y="156.573" width="209.115" height="237.657" filterUnits="userSpaceOnUse" color-interpolation-filters="sRGB">
<feFlood flood-opacity="0" result="BackgroundImageFix"/>
<feColorMatrix in="SourceAlpha" type="matrix" values="0 0 0 0 0 0 0 0 0 0 0 0 0 0 0 0 0 0 127 0" result="hardAlpha"/>
<feOffset dx="6.23171" dy="6.23171"/>
<feGaussianBlur stdDeviation="6.23171"/>
<feColorMatrix type="matrix" values="0 0 0 0 0.984314 0 0 0 0 0.792157 0 0 0 0 0.0392157 0 0 0 1 0"/>
<feBlend mode="normal" in2="BackgroundImageFix" result="effect1_dropShadow_263_12"/>
<feBlend mode="normal" in="SourceGraphic" in2="effect1_dropShadow_263_12" result="shape"/>
</filter>
<filter id="filter14_d_263_12" x="337.372" y="168.498" width="102.06" height="152.398" filterUnits="userSpaceOnUse" color-interpolation-filters="sRGB">
<feFlood flood-opacity="0" result="BackgroundImageFix"/>
<feColorMatrix in="SourceAlpha" type="matrix" values="0 0 0 0 0 0 0 0 0 0 0 0 0 0 0 0 0 0 127 0" result="hardAlpha"/>
<feOffset dy="6.23171"/>
<feGaussianBlur stdDeviation="6.23171"/>
<feColorMatrix type="matrix" values="0 0 0 0 0.984314 0 0 0 0 0.792157 0 0 0 0 0.0392157 0 0 0 1 0"/>
<feBlend mode="normal" in2="BackgroundImageFix" result="effect1_dropShadow_263_12"/>
<feBlend mode="normal" in="SourceGraphic" in2="effect1_dropShadow_263_12" result="shape"/>
</filter>
<linearGradient id="paint0_linear_263_12" x1="260.212" y1="7" x2="260.212" y2="159.213" gradientUnits="userSpaceOnUse">
<stop stop-color="#F0E792"/>
<stop offset="1" stop-color="#DCDF5F"/>
</linearGradient>
<linearGradient id="paint1_linear_263_12" x1="178.726" y1="51.8484" x2="178.726" y2="204.061" gradientUnits="userSpaceOnUse">
<stop stop-color="#F0E792"/>
<stop offset="1" stop-color="#DCDF5F"/>
</linearGradient>
<linearGradient id="paint2_linear_263_12" x1="340.341" y1="43.6941" x2="340.341" y2="195.907" gradientUnits="userSpaceOnUse">
<stop stop-color="#F0E792"/>
<stop offset="1" stop-color="#DCDF5F"/>
</linearGradient>
<linearGradient id="paint3_linear_263_12" x1="253.422" y1="76.3112" x2="253.422" y2="231.242" gradientUnits="userSpaceOnUse">
<stop stop-color="#F0E792"/>
<stop offset="1" stop-color="#DCDF5F"/>
</linearGradient>
<linearGradient id="paint4_linear_263_12" x1="173.972" y1="51.8484" x2="173.972" y2="113.005" gradientUnits="userSpaceOnUse">
<stop stop-color="#E7EA40"/>
<stop offset="1" stop-color="#DCDF5F"/>
</linearGradient>
<linearGradient id="paint5_linear_263_12" x1="260.892" y1="7" x2="260.892" y2="70.875" gradientUnits="userSpaceOnUse">
<stop stop-color="#BA9926"/>
<stop offset="1" stop-color="#DDD407"/>
</linearGradient>
<linearGradient id="paint6_linear_263_12" x1="249.347" y1="76.3112" x2="249.347" y2="146.981" gradientUnits="userSpaceOnUse">
<stop stop-color="#BA9926"/>
<stop offset="1" stop-color="#DDD407"/>
</linearGradient>
<linearGradient id="paint7_linear_263_12" x1="343.056" y1="43.6941" x2="343.056" y2="106.21" gradientUnits="userSpaceOnUse">
<stop stop-color="#E7EA40"/>
<stop offset="1" stop-color="#DCDF5F"/>
</linearGradient>
<linearGradient id="paint8_linear_263_12" x1="108.783" y1="280.168" x2="108.783" y2="411.995" gradientUnits="userSpaceOnUse">
<stop stop-color="#F0E792"/>
<stop offset="1" stop-color="#DCDF5F"/>
</linearGradient>
<linearGradient id="paint9_linear_263_12" x1="97.9186" y1="191.83" x2="97.9186" y2="350.838" gradientUnits="userSpaceOnUse">
<stop stop-color="#F0E792"/>
<stop offset="1" stop-color="#DCDF5F"/>
</linearGradient>
<linearGradient id="paint10_linear_263_12" x1="90.4492" y1="91.2606" x2="90.4492" y2="267.936" gradientUnits="userSpaceOnUse">
<stop stop-color="#F0E792"/>
<stop offset="1" stop-color="#DCDF5F"/>
</linearGradient>
<linearGradient id="paint11_linear_263_12" x1="169.219" y1="338.606" x2="169.219" y2="458.202" gradientUnits="userSpaceOnUse">
<stop stop-color="#F0E792"/>
<stop offset="1" stop-color="#DCDF5F"/>
</linearGradient>
<linearGradient id="paint12_linear_263_12" x1="166.504" y1="244.832" x2="166.504" y2="397.045" gradientUnits="userSpaceOnUse">
<stop stop-color="#F0E792"/>
<stop offset="1" stop-color="#DCDF5F"/>
</linearGradient>
<linearGradient id="paint13_linear_263_12" x1="87.7335" y1="91.2606" x2="87.7335" y2="164.649" gradientUnits="userSpaceOnUse">
<stop stop-color="#BA9926"/>
<stop offset="1" stop-color="#DDD407"/>
</linearGradient>
<linearGradient id="paint14_linear_263_12" x1="166.503" y1="119.801" x2="166.503" y2="318.221" gradientUnits="userSpaceOnUse">
<stop stop-color="#F0E792"/>
<stop offset="1" stop-color="#DCDF5F"/>
</linearGradient>
<linearGradient id="paint15_linear_263_12" x1="169.219" y1="119.801" x2="169.219" y2="204.061" gradientUnits="userSpaceOnUse">
<stop stop-color="#E7EA40"/>
<stop offset="1" stop-color="#DCDF5F"/>
</linearGradient>
<linearGradient id="paint16_linear_263_12" x1="429.975" y1="296.476" x2="429.975" y2="414.713" gradientUnits="userSpaceOnUse">
<stop stop-color="#F0E792"/>
<stop offset="1" stop-color="#DCDF5F"/>
</linearGradient>
<linearGradient id="paint17_linear_263_12" x1="367.503" y1="333.17" x2="367.503" y2="466.356" gradientUnits="userSpaceOnUse">
<stop stop-color="#F0E792"/>
<stop offset="1" stop-color="#DCDF5F"/>
</linearGradient>
<linearGradient id="paint18_linear_263_12" x1="443.557" y1="216.293" x2="443.557" y2="353.556" gradientUnits="userSpaceOnUse">
<stop stop-color="#F0E792"/>
<stop offset="1" stop-color="#DCDF5F"/>
</linearGradient>
<linearGradient id="paint19_linear_263_12" x1="254.78" y1="384.814" x2="254.78" y2="518" gradientUnits="userSpaceOnUse">
<stop stop-color="#EEF092"/>
<stop offset="1" stop-color="#DFD25F"/>
</linearGradient>
<linearGradient id="paint20_linear_263_12" x1="429.976" y1="81.7473" x2="429.976" y2="262.5" gradientUnits="userSpaceOnUse">
<stop stop-color="#E3F092"/>
<stop offset="1" stop-color="#DCDF5F"/>
</linearGradient>
<linearGradient id="paint21_linear_263_12" x1="430.655" y1="81.7473" x2="430.655" y2="155.136" gradientUnits="userSpaceOnUse">
<stop stop-color="#BA9926"/>
<stop offset="1" stop-color="#DDD407"/>
</linearGradient>
<linearGradient id="paint22_linear_263_12" x1="375.651" y1="259.782" x2="375.651" y2="392.968" gradientUnits="userSpaceOnUse">
<stop stop-color="#E8F092"/>
<stop offset="1" stop-color="#DFD25F"/>
</linearGradient>
<linearGradient id="paint23_linear_263_12" x1="346.453" y1="113.005" x2="346.453" y2="308.707" gradientUnits="userSpaceOnUse">
<stop stop-color="#F0E792"/>
<stop offset="1" stop-color="#DCDF5F"/>
</linearGradient>
<linearGradient id="paint24_linear_263_12" x1="257.496" y1="314.144" x2="257.496" y2="456.843" gradientUnits="userSpaceOnUse">
<stop stop-color="#F0E792"/>
<stop offset="1" stop-color="#DCDF5F"/>
</linearGradient>
<linearGradient id="paint25_linear_263_12" x1="343.058" y1="113.005" x2="343.058" y2="195.907" gradientUnits="userSpaceOnUse">
<stop stop-color="#E7EA40"/>
<stop offset="1" stop-color="#DCDF5F"/>
</linearGradient>
<linearGradient id="paint26_linear_263_12" x1="258.854" y1="161.931" x2="258.854" y2="378.019" gradientUnits="userSpaceOnUse">
<stop stop-color="#F0E792"/>
<stop offset="1" stop-color="#DCDF5F"/>
</linearGradient>
<linearGradient id="paint27_linear_263_12" x1="253.422" y1="161.931" x2="253.422" y2="252.987" gradientUnits="userSpaceOnUse">
<stop stop-color="#BA9926"/>
<stop offset="1" stop-color="#DDD407"/>
</linearGradient>
<linearGradient id="paint28_linear_263_12" x1="307.746" y1="219.011" x2="307.746" y2="369.864" gradientUnits="userSpaceOnUse">
<stop offset="0.0630631" stop-color="#DDAE07"/>
<stop offset="1" stop-color="#2D2601"/>
</linearGradient>
<linearGradient id="paint29_linear_263_12" x1="470.039" y1="134.75" x2="470.039" y2="257.064" gradientUnits="userSpaceOnUse">
<stop offset="0.0630631" stop-color="#DDAE07"/>
<stop offset="1" stop-color="#2D2601"/>
</linearGradient>
<linearGradient id="paint30_linear_263_12" x1="208.604" y1="223.088" x2="208.604" y2="369.864" gradientUnits="userSpaceOnUse">
<stop offset="0.0630631" stop-color="#DFD25F"/>
<stop offset="1" stop-color="#9D8E03"/>
</linearGradient>
<linearGradient id="paint31_linear_263_12" x1="125.081" y1="176.88" x2="125.081" y2="314.144" gradientUnits="userSpaceOnUse">
<stop stop-color="#A1770B"/>
<stop offset="1" stop-color="#695802"/>
</linearGradient>
<linearGradient id="paint32_linear_263_12" x1="393.986" y1="177.56" x2="371.548" y2="305.984" gradientUnits="userSpaceOnUse">
<stop offset="0.0287583" stop-color="#FFC700"/>
<stop offset="1" stop-color="#FFF500"/>
</linearGradient>
<linearGradient id="paint33_linear_263_12" x1="134.588" y1="281.527" x2="134.588" y2="397.045" gradientUnits="userSpaceOnUse">
<stop offset="0.0630631" stop-color="#DFD25F"/>
<stop offset="1" stop-color="#9D8E03"/>
</linearGradient>
<linearGradient id="paint34_linear_263_12" x1="379.047" y1="274.731" x2="379.047" y2="384.814" gradientUnits="userSpaceOnUse">
<stop offset="0.0630631" stop-color="#DDAE07"/>
<stop offset="1" stop-color="#2D2601"/>
</linearGradient>
<linearGradient id="paint35_linear_263_12" x1="453.18" y1="233.651" x2="435.523" y2="341.722" gradientUnits="userSpaceOnUse">
<stop offset="0.0287583" stop-color="#FFC700"/>
<stop offset="1" stop-color="#FFF500"/>
</linearGradient>
<linearGradient id="paint36_linear_263_12" x1="435.409" y1="304.63" x2="435.409" y2="406.559" gradientUnits="userSpaceOnUse">
<stop offset="0.0630631" stop-color="#DDAE07"/>
<stop offset="1" stop-color="#2D2601"/>
</linearGradient>
<linearGradient id="paint37_linear_263_12" x1="377.127" y1="350.467" x2="359.881" y2="457.302" gradientUnits="userSpaceOnUse">
<stop offset="0.0287583" stop-color="#FFC700"/>
<stop offset="1" stop-color="#FFF500"/>
</linearGradient>
<linearGradient id="paint38_linear_263_12" x1="309.596" y1="334.529" x2="291.15" y2="449.202" gradientUnits="userSpaceOnUse">
<stop offset="0.0287583" stop-color="#FFC700"/>
<stop offset="1" stop-color="#FFF500"/>
</linearGradient>
<linearGradient id="paint39_linear_263_12" x1="144.773" y1="365.787" x2="144.773" y2="460.92" gradientUnits="userSpaceOnUse">
<stop stop-color="#A1770B"/>
<stop offset="1" stop-color="#695802"/>
</linearGradient>
<linearGradient id="paint40_linear_263_12" x1="51.7426" y1="140.186" x2="51.7426" y2="267.936" gradientUnits="userSpaceOnUse">
<stop offset="0.0630631" stop-color="#DFD25F"/>
<stop offset="1" stop-color="#9D8E03"/>
</linearGradient>
<linearGradient id="paint41_linear_263_12" x1="296.882" y1="406.558" x2="296.882" y2="515.282" gradientUnits="userSpaceOnUse">
<stop offset="0.0630631" stop-color="#DDAE07"/>
<stop offset="1" stop-color="#2D2601"/>
</linearGradient>
<linearGradient id="paint42_linear_263_12" x1="66.0031" y1="235.319" x2="66.0031" y2="348.12" gradientUnits="userSpaceOnUse">
<stop stop-color="#A1770B"/>
<stop offset="1" stop-color="#695802"/>
</linearGradient>
<linearGradient id="paint43_linear_263_12" x1="218.111" y1="411.995" x2="192.274" y2="498.284" gradientUnits="userSpaceOnUse">
<stop offset="0.0630631" stop-color="#DCDF5F"/>
<stop offset="0.753239" stop-color="#9D8403"/>
</linearGradient>
<linearGradient id="paint44_linear_263_12" x1="214.716" y1="333.17" x2="214.716" y2="451.407" gradientUnits="userSpaceOnUse">
<stop stop-color="#A1770B"/>
<stop offset="1" stop-color="#695802"/>
</linearGradient>
<linearGradient id="paint45_linear_263_12" x1="80.9426" y1="318.221" x2="80.9426" y2="414.713" gradientUnits="userSpaceOnUse">
<stop offset="0.0630631" stop-color="#DFD25F"/>
<stop offset="1" stop-color="#9D8E03"/>
</linearGradient>
</defs>
</svg>
