<svg width="100" height="100" viewBox="0 0 100 100" fill="none" xmlns="http://www.w3.org/2000/svg">
<path d="M32.0501 49.5708L37.9251 51.5291C41.8085 52.8208 43.746 53.4708 45.1376 54.8624C46.5293 56.2541 47.1793 58.1958 48.471 62.0708L50.4293 67.9458C53.696 77.7541 55.3293 82.6541 58.3335 82.6541C61.3335 82.6541 62.971 77.7541 66.2376 67.9458L78.0626 32.4791C80.3626 25.5791 81.5126 22.1291 79.6918 20.3083C77.871 18.4875 74.421 19.6375 67.5251 21.9333L32.046 33.7666C22.2501 37.0291 17.3418 38.6625 17.3418 41.6666C17.3418 44.6708 22.246 46.3041 32.0501 49.5708Z" fill="#060113"/>
<path d="M32.0501 49.5708L37.9251 51.5291C41.8085 52.8208 43.746 53.4708 45.1376 54.8624C46.5293 56.2541 47.1793 58.1958 48.471 62.0708L50.4293 67.9458C53.696 77.7541 55.3293 82.6541 58.3335 82.6541C61.3335 82.6541 62.971 77.7541 66.2376 67.9458L78.0626 32.4791C80.3626 25.5791 81.5126 22.1291 79.6918 20.3083C77.871 18.4875 74.421 19.6375 67.5251 21.9333L32.046 33.7666C22.2501 37.0291 17.3418 38.6625 17.3418 41.6666C17.3418 44.6708 22.246 46.3041 32.0501 49.5708Z" fill="#060113"/>
<path d="M39.6917 57.675L31.1001 54.8125C30.4989 54.6121 29.8599 54.5514 29.2317 54.6352C28.6035 54.7189 28.0027 54.9449 27.4751 55.2958L22.9334 58.3208C22.3958 58.679 21.9738 59.1857 21.7188 59.7793C21.4639 60.3729 21.3869 61.0277 21.4972 61.6643C21.6076 62.3008 21.9005 62.8915 22.3404 63.3646C22.7803 63.8377 23.3482 64.1728 23.9751 64.3291L32.1209 66.3625C32.4875 66.454 32.8222 66.6435 33.0894 66.9106C33.3566 67.1778 33.546 67.5126 33.6376 67.8791L35.6709 76.025C35.8272 76.6518 36.1623 77.2197 36.6354 77.6596C37.1085 78.0995 37.6992 78.3924 38.3358 78.5028C38.9723 78.6131 39.6272 78.5362 40.2208 78.2812C40.8143 78.0262 41.321 77.6043 41.6792 77.0666L44.7042 72.525C45.0552 71.9973 45.2811 71.3965 45.3648 70.7683C45.4486 70.1402 45.388 69.5012 45.1876 68.9L42.3251 60.3083C42.1204 59.6952 41.776 59.1381 41.319 58.6811C40.8619 58.224 40.3048 57.8796 39.6917 57.675Z" fill="#060113"/>
</svg>
