<svg width="265" height="265" viewBox="0 0 265 265" fill="none" xmlns="http://www.w3.org/2000/svg">
<path d="M40.625 121.458V60.0823L132.5 19.249L224.375 60.0823V121.458C224.375 178.946 184.939 232.445 132.5 246.221C80.0609 232.445 40.625 178.946 40.625 121.458Z" stroke="#FBCA0A" stroke-width="15"/>
<path d="M107.669 157.95H87.4502L104.99 134.395C106.067 133.211 106.847 131.788 107.267 130.244C107.687 128.699 107.734 127.077 107.404 125.51C107.074 123.944 106.377 122.478 105.37 121.234C104.364 119.989 103.076 119.002 101.613 118.353C100.149 117.703 98.553 117.411 96.9547 117.499C95.3565 117.587 93.802 118.053 92.4192 118.86C91.0364 119.666 89.8649 120.789 89.001 122.137C88.1371 123.485 87.6056 125.018 87.4502 126.611M122.833 157.95V117.513H143.051M122.833 137.731H137.997M158.215 157.95V127.622C158.215 124.941 159.28 122.37 161.176 120.474C163.072 118.578 165.643 117.513 168.324 117.513C171.005 117.513 173.577 118.578 175.473 120.474C177.368 122.37 178.434 124.941 178.434 127.622V157.95M158.215 142.786H178.434" stroke="#FBCA0A" stroke-width="8.48286" stroke-linecap="round" stroke-linejoin="round"/>
</svg>
