<svg width="30" height="30" viewBox="0 0 30 30" fill="none" xmlns="http://www.w3.org/2000/svg">
<path fill-rule="evenodd" clip-rule="evenodd" d="M15.0001 13.4375C15.2486 13.4373 15.4869 13.3384 15.6626 13.1625L19.4126 9.4125C19.5782 9.23478 19.6683 8.99972 19.664 8.75685C19.6597 8.51397 19.5613 8.28224 19.3896 8.11047C19.2178 7.93871 18.9861 7.84032 18.7432 7.83603C18.5003 7.83175 18.2653 7.9219 18.0876 8.0875L15.9376 10.2375V2.5C15.9376 2.25136 15.8388 2.0129 15.663 1.83709C15.4871 1.66127 15.2487 1.5625 15.0001 1.5625C14.7514 1.5625 14.513 1.66127 14.3371 1.83709C14.1613 2.0129 14.0626 2.25136 14.0626 2.5V10.2375L11.9126 8.0875C11.7348 7.9219 11.4998 7.83175 11.2569 7.83603C11.014 7.84032 10.7823 7.93871 10.6105 8.11047C10.4388 8.28224 10.3404 8.51397 10.3361 8.75685C10.3318 8.99972 10.422 9.23478 10.5876 9.4125L14.3376 13.1625C14.5126 13.3387 14.7513 13.4375 15.0001 13.4375Z" fill="#D9D9D9"/>
<path d="M4.33016 25.67C6.16266 27.5 9.10766 27.5 15.0002 27.5C20.8927 27.5 23.8389 27.5 25.6689 25.6687C27.2577 24.0812 27.4689 21.6525 27.4964 17.1875H23.5502C22.3327 17.1875 22.0139 17.2075 21.7477 17.33C21.4802 17.4538 21.2577 17.6825 20.4652 18.605L19.5989 19.6175C18.9714 20.35 18.4739 20.9312 17.7864 21.2475C17.0989 21.5637 16.3339 21.5637 15.3689 21.5625H14.6314C13.6664 21.5625 12.9014 21.565 12.2139 21.2475C11.5264 20.9312 11.0289 20.35 10.4014 19.6162L9.53516 18.6063C8.74266 17.6813 8.52016 17.4537 8.25266 17.3312C7.98641 17.2075 7.66766 17.1875 6.45016 17.1875H2.50391C2.53266 21.6525 2.74141 24.0825 4.33016 25.67Z" fill="#D9D9D9"/>
<path d="M27.5 15C27.5 9.10751 27.5 6.16126 25.6688 4.33001C24.1562 2.81751 21.8813 2.55501 17.8125 2.51001V6.09751C18.4141 5.88446 19.0703 5.88237 19.6732 6.09156C20.2762 6.30076 20.7901 6.70881 21.1305 7.24868C21.4708 7.78855 21.6175 8.42814 21.5463 9.06238C21.4751 9.69661 21.1903 10.2878 20.7388 10.7388L16.9887 14.4888C16.7276 14.7499 16.4175 14.9571 16.0763 15.0984C15.7351 15.2398 15.3693 15.3125 15 15.3125C14.6307 15.3125 14.2649 15.2398 13.9237 15.0984C13.5825 14.9571 13.2724 14.7499 13.0113 14.4888L9.26125 10.7388C8.80966 10.2878 8.52488 9.69661 8.4537 9.06238C8.38251 8.42814 8.52915 7.78855 8.86954 7.24868C9.20992 6.70881 9.7238 6.30076 10.3268 6.09156C10.9297 5.88237 11.5859 5.88446 12.1875 6.09751V2.51001C8.1175 2.55501 5.84375 2.81751 4.33 4.33001C2.5 6.16251 2.5 9.10751 2.5 15V15.3125H6.61875C7.58375 15.3125 8.34875 15.31 9.03625 15.6275C9.72375 15.9438 10.2213 16.525 10.8488 17.2588L11.715 18.2688C12.5075 19.1938 12.73 19.4213 12.9975 19.5438C13.2638 19.6675 13.5825 19.6875 14.8 19.6875H15.2C16.4175 19.6875 16.7362 19.6675 17.0025 19.545C17.27 19.4213 17.4925 19.1925 18.285 18.27L19.1513 17.2575C19.7787 16.525 20.2762 15.9438 20.9637 15.6275C21.6513 15.3113 22.4162 15.3113 23.3825 15.3125H27.5V15Z" fill="#D9D9D9"/>
</svg>
