<svg width="30" height="30" viewBox="0 0 30 30" fill="none" xmlns="http://www.w3.org/2000/svg">
<rect width="30" height="30" rx="4" fill="#D9D9D9"/>
<path d="M24 7.5V17.25C24 17.6478 23.842 18.0294 23.5607 18.3107C23.2794 18.592 22.8978 18.75 22.5 18.75H13.5V20.25C13.5001 20.3984 13.4562 20.5435 13.3738 20.667C13.2914 20.7904 13.1742 20.8867 13.0371 20.9435C12.9 21.0003 12.7491 21.0151 12.6035 20.9861C12.458 20.9572 12.3243 20.8856 12.2194 20.7806L9.96937 18.5306C9.89964 18.461 9.84432 18.3783 9.80658 18.2872C9.76884 18.1962 9.74941 18.0986 9.74941 18C9.74941 17.9014 9.76884 17.8038 9.80658 17.7128C9.84432 17.6217 9.89964 17.539 9.96937 17.4694L12.2194 15.2194C12.3243 15.1144 12.458 15.0428 12.6035 15.0139C12.7491 14.9849 12.9 14.9997 13.0371 15.0565C13.1742 15.1133 13.2914 15.2096 13.3738 15.333C13.4562 15.4565 13.5001 15.6016 13.5 15.75V17.25H22.5V7.5H12V8.25C12 8.44891 11.921 8.63968 11.7803 8.78033C11.6397 8.92098 11.4489 9 11.25 9C11.0511 9 10.8603 8.92098 10.7197 8.78033C10.579 8.63968 10.5 8.44891 10.5 8.25V7.5C10.5 7.10218 10.658 6.72064 10.9393 6.43934C11.2206 6.15804 11.6022 6 12 6H22.5C22.8978 6 23.2794 6.15804 23.5607 6.43934C23.842 6.72064 24 7.10218 24 7.5ZM18.75 21C18.5511 21 18.3603 21.079 18.2197 21.2197C18.079 21.3603 18 21.5511 18 21.75V22.5H7.5V12.75H16.5V14.25C16.4999 14.3984 16.5438 14.5435 16.6262 14.667C16.7086 14.7904 16.8258 14.8867 16.9629 14.9435C17.1 15.0003 17.2509 15.0151 17.3965 14.9861C17.542 14.9572 17.6757 14.8856 17.7806 14.7806L20.0306 12.5306C20.1004 12.461 20.1557 12.3783 20.1934 12.2872C20.2312 12.1962 20.2506 12.0986 20.2506 12C20.2506 11.9014 20.2312 11.8038 20.1934 11.7128C20.1557 11.6217 20.1004 11.539 20.0306 11.4694L17.7806 9.21937C17.6757 9.11437 17.542 9.04284 17.3965 9.01385C17.2509 8.98487 17.1 8.99972 16.9629 9.05653C16.8258 9.11335 16.7086 9.20957 16.6262 9.33301C16.5438 9.45646 16.4999 9.60158 16.5 9.75V11.25H7.5C7.10218 11.25 6.72064 11.408 6.43934 11.6893C6.15804 11.9706 6 12.3522 6 12.75V22.5C6 22.8978 6.15804 23.2794 6.43934 23.5607C6.72064 23.842 7.10218 24 7.5 24H18C18.3978 24 18.7794 23.842 19.0607 23.5607C19.342 23.2794 19.5 22.8978 19.5 22.5V21.75C19.5 21.5511 19.421 21.3603 19.2803 21.2197C19.1397 21.079 18.9489 21 18.75 21Z" fill="#0C0C16"/>
</svg>
