<svg width="30" height="30" viewBox="0 0 30 30" fill="none" xmlns="http://www.w3.org/2000/svg">
<path fill-rule="evenodd" clip-rule="evenodd" d="M4.33 25.67C6.1625 27.5 9.1075 27.5 15 27.5C20.8925 27.5 23.8387 27.5 25.6688 25.6688C27.5 23.84 27.5 20.8925 27.5 15C27.5 9.1075 27.5 6.16125 25.6688 4.33C23.84 2.5 20.8925 2.5 15 2.5C9.1075 2.5 6.16125 2.5 4.33 4.33C2.5 6.1625 2.5 9.1075 2.5 15C2.5 20.8925 2.5 23.84 4.33 25.67ZM9.45625 16.335C9.29264 16.1477 9.06133 16.033 8.8132 16.0163C8.56506 15.9995 8.32043 16.082 8.13313 16.2456C7.94582 16.4092 7.83117 16.6405 7.81441 16.8887C7.79765 17.1368 7.88014 17.3814 8.04375 17.5688L11.7938 21.865C11.9192 22.0087 12.0854 22.1107 12.2703 22.1574C12.4552 22.2041 12.6499 22.1933 12.8285 22.1265C13.0071 22.0597 13.1611 21.94 13.2699 21.7834C13.3787 21.6268 13.4372 21.4407 13.4375 21.25V8.75C13.4375 8.50136 13.3387 8.2629 13.1629 8.08709C12.9871 7.91127 12.7486 7.8125 12.5 7.8125C12.2514 7.8125 12.0129 7.91127 11.8371 8.08709C11.6613 8.2629 11.5625 8.50136 11.5625 8.75V18.75L9.45625 16.335ZM17.1713 7.87125C16.9923 7.93825 16.8381 8.05831 16.7294 8.21536C16.6206 8.37241 16.5623 8.55895 16.5625 8.75V21.25C16.5625 21.4986 16.6613 21.7371 16.8371 21.9129C17.0129 22.0887 17.2514 22.1875 17.5 22.1875C17.7486 22.1875 17.9871 22.0887 18.1629 21.9129C18.3387 21.7371 18.4375 21.4986 18.4375 21.25V11.25L20.5437 13.6625C20.7088 13.8441 20.9384 13.9538 21.1834 13.968C21.4283 13.9822 21.6691 13.8998 21.854 13.7385C22.0389 13.5772 22.1532 13.3498 22.1723 13.1051C22.1914 12.8605 22.1138 12.6181 21.9563 12.43L18.2062 8.13375C18.0809 7.98987 17.9147 7.88766 17.7298 7.84075C17.5448 7.79385 17.35 7.80449 17.1713 7.87125Z" fill="#D9D9D9"/>
</svg>
