<svg width="140" height="140" viewBox="0 0 140 140" fill="none" xmlns="http://www.w3.org/2000/svg">
<path d="M48.2794 70L54.2453 33.6364H60.6374L54.6715 70H48.2794ZM32.0685 61.3352L33.1516 54.9432H61.9868L60.9037 61.3352H32.0685ZM35.4953 70L41.4612 33.6364H47.8533L41.8874 70H35.4953ZM34.1459 48.6932L35.229 42.3011H64.0642L62.9811 48.6932H34.1459Z" fill="#FBCA0A"/>
<path d="M25.3422 81.1438H34.1135V104.599C34.1135 107.31 33.4684 109.671 32.1782 111.684C30.8879 113.684 29.0887 115.235 26.7805 116.336C24.4722 117.425 21.7911 117.969 18.7371 117.969C15.6476 117.969 12.9488 117.425 10.6405 116.336C8.3323 115.235 6.53897 113.684 5.26056 111.684C3.98216 109.671 3.34295 107.31 3.34295 104.599V81.1438H12.132V103.836C12.132 105.09 12.4043 106.209 12.9488 107.191C13.5051 108.174 14.2805 108.943 15.2748 109.5C16.2691 110.056 17.4232 110.334 18.7371 110.334C20.051 110.334 21.1992 110.056 22.1817 109.5C23.176 108.943 23.9514 108.174 24.5077 107.191C25.0641 106.209 25.3422 105.09 25.3422 103.836V81.1438ZM59.2778 92.0458C59.1594 90.7437 58.6327 89.7317 57.6975 89.0096C56.7742 88.2757 55.4544 87.9088 53.738 87.9088C52.6017 87.9088 51.6547 88.0567 50.8971 88.3526C50.1395 88.6486 49.5713 89.057 49.1926 89.5778C48.8138 90.0868 48.6185 90.6727 48.6066 91.3356C48.5829 91.8801 48.6895 92.3595 48.9262 92.7738C49.1748 93.1881 49.5299 93.5551 49.9916 93.8747C50.4651 94.1824 51.0332 94.4547 51.6961 94.6914C52.359 94.9282 53.1047 95.1353 53.9333 95.3129L57.0583 96.0231C58.8576 96.4137 60.4437 96.9346 61.8169 97.5856C63.2018 98.2366 64.3618 99.012 65.297 99.9116C66.2439 100.811 66.9601 101.847 67.4454 103.019C67.9307 104.191 68.1793 105.505 68.1911 106.961C68.1793 109.257 67.5993 111.228 66.4511 112.873C65.3029 114.519 63.6516 115.779 61.4972 116.655C59.3547 117.531 56.7683 117.969 53.738 117.969C50.6959 117.969 48.0444 117.513 45.7835 116.602C43.5226 115.69 41.7648 114.306 40.51 112.447C39.2553 110.589 38.6102 108.239 38.5747 105.398H46.9909C47.0619 106.57 47.3756 107.547 47.9319 108.328C48.4883 109.109 49.2517 109.701 50.2224 110.103C51.2049 110.506 52.3412 110.707 53.6315 110.707C54.8152 110.707 55.8213 110.547 56.6499 110.228C57.4904 109.908 58.1355 109.464 58.5853 108.896C59.0351 108.328 59.266 107.677 59.2778 106.943C59.266 106.256 59.0529 105.67 58.6386 105.185C58.2243 104.688 57.5851 104.262 56.721 103.907C55.8687 103.54 54.7797 103.202 53.4539 102.895L49.6542 102.007C46.5055 101.285 44.0257 100.119 42.2146 98.5089C40.4035 96.8872 39.5039 94.6973 39.5157 91.9393C39.5039 89.6902 40.1076 87.7194 41.3268 86.0267C42.546 84.3339 44.2328 83.0141 46.3872 82.0671C48.5415 81.1202 50.9977 80.6467 53.7558 80.6467C56.573 80.6467 59.0174 81.1261 61.0889 82.0849C63.1722 83.0319 64.788 84.3635 65.9362 86.0799C67.0844 87.7963 67.6703 89.7849 67.694 92.0458H59.2778ZM92.2856 92.0458C92.1672 90.7437 91.6405 89.7317 90.7053 89.0096C89.782 88.2757 88.4622 87.9088 86.7458 87.9088C85.6095 87.9088 84.6625 88.0567 83.9049 88.3526C83.1473 88.6486 82.5792 89.057 82.2004 89.5778C81.8216 90.0868 81.6263 90.6727 81.6144 91.3356C81.5908 91.8801 81.6973 92.3595 81.934 92.7738C82.1826 93.1881 82.5377 93.5551 82.9994 93.8747C83.4729 94.1824 84.041 94.4547 84.7039 94.6914C85.3668 94.9282 86.1125 95.1353 86.9411 95.3129L90.0661 96.0231C91.8654 96.4137 93.4516 96.9346 94.8247 97.5856C96.2096 98.2366 97.3696 99.012 98.3048 99.9116C99.2517 100.811 99.9679 101.847 100.453 103.019C100.939 104.191 101.187 105.505 101.199 106.961C101.187 109.257 100.607 111.228 99.4589 112.873C98.3107 114.519 96.6594 115.779 94.5051 116.655C92.3625 117.531 89.7761 117.969 86.7458 117.969C83.7037 117.969 81.0522 117.513 78.7913 116.602C76.5304 115.69 74.7726 114.306 73.5178 112.447C72.2631 110.589 71.618 108.239 71.5825 105.398H79.9987C80.0697 106.57 80.3834 107.547 80.9397 108.328C81.4961 109.109 82.2596 109.701 83.2302 110.103C84.2127 110.506 85.349 110.707 86.6393 110.707C87.823 110.707 88.8292 110.547 89.6578 110.228C90.4982 109.908 91.1433 109.464 91.5931 108.896C92.0429 108.328 92.2738 107.677 92.2856 106.943C92.2738 106.256 92.0607 105.67 91.6464 105.185C91.2321 104.688 90.5929 104.262 89.7288 103.907C88.8765 103.54 87.7875 103.202 86.4617 102.895L82.662 102.007C79.5133 101.285 77.0335 100.119 75.2224 98.5089C73.4113 96.8872 72.5117 94.6973 72.5235 91.9393C72.5117 89.6902 73.1154 87.7194 74.3346 86.0267C75.5538 84.3339 77.2406 83.0141 79.395 82.0671C81.5493 81.1202 84.0055 80.6467 86.7636 80.6467C89.5808 80.6467 92.0252 81.1261 94.0967 82.0849C96.18 83.0319 97.7958 84.3635 98.944 86.0799C100.092 87.7963 100.678 89.7849 100.702 92.0458H92.2856ZM119.079 117.507H105.638V81.1438H119.061C122.766 81.1438 125.956 81.8718 128.631 83.3278C131.319 84.7719 133.39 86.8552 134.846 89.5778C136.302 92.2885 137.03 95.5319 137.03 99.3079C137.03 103.096 136.302 106.351 134.846 109.074C133.402 111.796 131.336 113.885 128.649 115.341C125.962 116.785 122.772 117.507 119.079 117.507ZM114.427 110.015H118.742C120.778 110.015 122.5 109.671 123.908 108.985C125.329 108.286 126.4 107.156 127.122 105.593C127.856 104.019 128.223 101.924 128.223 99.3079C128.223 96.6919 127.856 94.6086 127.122 93.0579C126.388 91.4954 125.305 90.3709 123.873 89.6843C122.453 88.9859 120.701 88.6367 118.617 88.6367H114.427V110.015Z" fill="#FBCA0A"/>
<path d="M88.2852 64.4491L88.8001 57.8795L83.3314 61.626L80.7213 57.045L86.6517 54.2218L80.7213 51.3987L83.3314 46.8177L88.8001 50.5642L88.2852 43.9946H93.5231L93.0082 50.5642L98.477 46.8177L101.087 51.3987L95.1566 54.2218L101.087 57.045L98.477 61.626L93.0082 57.8795L93.5231 64.4491H88.2852Z" fill="#FBCA0A"/>
</svg>
